<svg xmlns="http://www.w3.org/2000/svg" fill="none" viewBox="0 0 110 26"><path fill="#3A92F9" fill-rule="evenodd" d="M0 0c0 8.837 7.163 16 16 16S32 8.837 32 0H0Z" clip-rule="evenodd"/><path fill="#4ADAD6" d="M0 18h32v8H0z"/><path fill="#303333" d="M48 19.827V7.173h4.988c1.022 0 1.88.181 2.572.544.697.362 1.223.86 1.578 1.495.36.63.54 1.347.54 2.15 0 .812-.18 1.533-.54 2.163-.36.63-.89 1.126-1.591 1.489-.701.358-1.565.537-2.591.537H49.65v-1.884h2.98c.598 0 1.088-.099 1.469-.297.38-.197.662-.47.844-.815.186-.346.28-.744.28-1.193a2.44 2.44 0 0 0-.28-1.186 1.855 1.855 0 0 0-.85-.797c-.382-.194-.873-.29-1.475-.29H50.41v10.738H48ZM59.77 19.827V7.173h4.988c1.022 0 1.88.169 2.572.507.698.337 1.224.811 1.579 1.42.359.606.539 1.313.539 2.12 0 .811-.182 1.516-.546 2.113-.36.593-.89 1.053-1.591 1.378-.702.321-1.563.482-2.585.482h-3.553V13.29h3.228c.598 0 1.087-.078 1.468-.235.381-.16.662-.393.844-.698.187-.309.28-.688.28-1.137 0-.449-.093-.832-.28-1.15-.186-.32-.47-.563-.85-.728-.382-.17-.873-.254-1.475-.254H62.18v10.739h-2.41Zm6.872-5.734 3.293 5.734h-2.69l-3.234-5.734h2.63ZM83.551 13.5c0 1.363-.268 2.531-.805 3.503-.533.968-1.26 1.71-2.182 2.225-.918.515-1.96.772-3.124.772-1.165 0-2.209-.257-3.13-.772-.919-.52-1.646-1.263-2.183-2.23-.533-.973-.799-2.139-.799-3.498 0-1.363.266-2.53.799-3.497.537-.972 1.264-1.716 2.182-2.23.922-.516 1.966-.773 3.13-.773 1.165 0 2.207.257 3.125.772.922.515 1.65 1.259 2.182 2.23.537.969.805 2.135.805 3.498Zm-2.422 0c0-.96-.158-1.77-.474-2.428-.312-.663-.745-1.164-1.3-1.502-.554-.342-1.192-.512-1.915-.512-.724 0-1.362.17-1.916.512-.555.338-.99.839-1.306 1.502-.312.659-.468 1.468-.468 2.428s.156 1.771.468 2.434c.316.66.751 1.16 1.306 1.502.554.338 1.192.506 1.916.506.723 0 1.361-.168 1.916-.506.554-.342.987-.843 1.299-1.502.316-.663.474-1.474.474-2.434ZM87.36 7.173l2.93 4.634h.104l2.942-4.634h2.747L91.985 13.5l4.163 6.327h-2.793l-2.961-4.603h-.104l-2.962 4.603h-2.78l4.203-6.327-4.15-6.327h2.76ZM97.066 7.173h2.72l3.255 5.598h.13l3.254-5.598h2.721l-4.839 7.934v4.72h-2.403v-4.72l-4.838-7.934Z"/></svg>